<svg width="64" height="64" viewBox="0 0 64 64" fill="none" xmlns="http://www.w3.org/2000/svg">
<path d="M52 10H12C8.68629 10 6 12.6863 6 16V52C6 55.3137 8.68629 58 12 58H52C55.3137 58 58 55.3137 58 52V16C58 12.6863 55.3137 10 52 10Z" stroke="white" stroke-width="5" stroke-linejoin="round"/>
<path d="M37 32C38.6569 32 40 30.6569 40 29C40 27.3431 38.6569 26 37 26C35.3431 26 34 27.3431 34 29C34 30.6569 35.3431 32 37 32Z" fill="white"/>
<path d="M47 32C48.6569 32 50 30.6569 50 29C50 27.3431 48.6569 26 47 26C45.3431 26 44 27.3431 44 29C44 30.6569 45.3431 32 47 32Z" fill="white"/>
<path d="M37 42C38.6569 42 40 40.6569 40 39C40 37.3431 38.6569 36 37 36C35.3431 36 34 37.3431 34 39C34 40.6569 35.3431 42 37 42Z" fill="white"/>
<path d="M47 42C48.6569 42 50 40.6569 50 39C50 37.3431 48.6569 36 47 36C45.3431 36 44 37.3431 44 39C44 40.6569 45.3431 42 47 42Z" fill="white"/>
<path d="M17 42C18.6569 42 20 40.6569 20 39C20 37.3431 18.6569 36 17 36C15.3431 36 14 37.3431 14 39C14 40.6569 15.3431 42 17 42Z" fill="white"/>
<path d="M27 42C28.6569 42 30 40.6569 30 39C30 37.3431 28.6569 36 27 36C25.3431 36 24 37.3431 24 39C24 40.6569 25.3431 42 27 42Z" fill="white"/>
<path d="M17 52C18.6569 52 20 50.6569 20 49C20 47.3431 18.6569 46 17 46C15.3431 46 14 47.3431 14 49C14 50.6569 15.3431 52 17 52Z" fill="white"/>
<path d="M27 52C28.6569 52 30 50.6569 30 49C30 47.3431 28.6569 46 27 46C25.3431 46 24 47.3431 24 49C24 50.6569 25.3431 52 27 52Z" fill="white"/>
<path d="M37 52C38.6569 52 40 50.6569 40 49C40 47.3431 38.6569 46 37 46C35.3431 46 34 47.3431 34 49C34 50.6569 35.3431 52 37 52Z" fill="white"/>
<path d="M16 6V10M48 6V10" stroke="white" stroke-width="5" stroke-linecap="round" stroke-linejoin="round"/>
<path d="M58 20H6" stroke="white" stroke-width="5" stroke-linejoin="round"/>
</svg>
