<svg width="64" height="64" viewBox="0 0 64 64" fill="none" xmlns="http://www.w3.org/2000/svg">
<path d="M53.875 40.075C53.75 39.625 54.025 39 54.2875 38.55C54.3678 38.4161 54.4554 38.2867 54.55 38.1625C56.7953 34.8261 57.9964 30.8966 58 26.875C58.0375 15.35 48.3125 6 36.2875 6C25.8 6 17.05 13.1375 15 22.6125C14.6933 24.0168 14.5383 25.4501 14.5375 26.8875C14.5375 38.425 23.8875 48.025 35.9125 48.025C37.825 48.025 40.4 47.45 41.8125 47.0625C43.225 46.675 44.625 46.1625 44.9875 46.025C45.3591 45.8849 45.7529 45.8129 46.15 45.8125C46.5833 45.8108 47.0125 45.8958 47.4125 46.0625L54.5 48.575C54.6554 48.6408 54.8197 48.6829 54.9875 48.7C55.2527 48.7 55.5071 48.5946 55.6946 48.4071C55.8821 48.2196 55.9875 47.9652 55.9875 47.7C55.9788 47.5856 55.9578 47.4724 55.925 47.3625L53.875 40.075Z" stroke="white" stroke-width="5" stroke-miterlimit="10" stroke-linecap="round"/>
<path d="M8.3075 29C6.66804 31.9453 5.87495 35.2866 6.01592 38.6545C6.15688 42.0224 7.2264 45.2857 9.10625 48.0838C9.395 48.52 9.5575 48.8575 9.5075 49.0838C9.4575 49.31 8.01625 56.8175 8.01625 56.8175C7.98158 56.9932 7.99473 57.175 8.05432 57.3438C8.11391 57.5127 8.21775 57.6625 8.355 57.7775C8.53813 57.9234 8.76585 58.002 9 58C9.12512 58.0003 9.24897 57.9748 9.36375 57.925L16.39 55.175C16.8736 54.9844 17.413 54.9933 17.89 55.2C20.2575 56.1225 22.875 56.7 25.4937 56.7C29.0078 56.7037 32.4602 55.7769 35.5 54.0137" stroke="white" stroke-width="5" stroke-miterlimit="10" stroke-linecap="round"/>
</svg>
