<svg width="64" height="64" viewBox="0 0 64 64" fill="none" xmlns="http://www.w3.org/2000/svg">
<path d="M55.01 42.6637C54.8025 42.4137 54.5988 42.1637 54.3988 41.9225C51.6488 38.5963 49.985 36.5888 49.985 27.1725C49.985 22.2975 48.8187 18.2975 46.52 15.2975C44.825 13.0812 42.5337 11.4 39.5137 10.1575C39.4749 10.1359 39.4402 10.1075 39.4113 10.0737C38.325 6.43625 35.3525 4 32 4C28.6475 4 25.6763 6.43625 24.59 10.07C24.561 10.1025 24.5268 10.13 24.4888 10.1512C17.4412 13.0525 14.0163 18.6188 14.0163 27.1688C14.0163 36.5888 12.355 38.5963 9.6025 41.9188C9.4025 42.16 9.19875 42.405 8.99125 42.66C8.45525 43.3064 8.11565 44.0928 8.01264 44.9262C7.90963 45.7596 8.04753 46.605 8.41 47.3625C9.18125 48.9875 10.825 49.9963 12.7013 49.9963H51.3125C53.18 49.9963 54.8125 48.9888 55.5863 47.3713C55.9503 46.6136 56.0895 45.7675 55.9874 44.9331C55.8852 44.0988 55.546 43.3112 55.01 42.6637ZM32 60C33.8063 59.9985 35.5785 59.5082 37.1287 58.5811C38.6789 57.6539 39.9492 56.3245 40.805 54.7337C40.8453 54.6575 40.8652 54.5722 40.8628 54.486C40.8604 54.3997 40.8357 54.3156 40.7912 54.2418C40.7466 54.1679 40.6838 54.1069 40.6086 54.0645C40.5335 54.0221 40.4487 53.9999 40.3625 54H23.64C23.5537 53.9997 23.4687 54.0218 23.3934 54.064C23.3181 54.1063 23.2551 54.1674 23.2104 54.2412C23.1657 54.3151 23.1409 54.3993 23.1385 54.4856C23.136 54.5719 23.1559 54.6574 23.1963 54.7337C24.0519 56.3243 25.3221 57.6536 26.872 58.5807C28.422 59.5079 30.1939 59.9983 32 60Z" fill="white"/>
</svg>
