<svg width="56" height="56" viewBox="0 0 56 56" fill="none" xmlns="http://www.w3.org/2000/svg">
<path d="M2 18.0064V18.0889C1.99705 18.6043 1.81097 19.1019 1.475 19.4927V19.4989C0.8 20.2964 0 21.7239 0 24.0064C0 26.0752 0.6625 27.5352 1.46 28.4952C1.8099 28.921 2.0008 29.4553 2 30.0064C2 31.0673 2.42143 32.0847 3.17157 32.8349C3.92172 33.585 4.93913 34.0064 6 34.0064H7C7.26522 34.0064 7.51957 33.9011 7.70711 33.7135C7.89464 33.526 8 33.2717 8 33.0064V15.0064C8 14.7412 7.89464 14.4869 7.70711 14.2993C7.51957 14.1118 7.26522 14.0064 7 14.0064H6C4.93913 14.0064 3.92172 14.4279 3.17157 15.178C2.42143 15.9282 2 16.9456 2 18.0064ZM52.5225 19.3252L52.4062 19.3039C52.292 19.2821 52.1888 19.2211 52.1147 19.1314C52.0405 19.0418 52 18.929 52 18.8127V3.75643C52 2.17643 50.9512 0.756432 49.3887 0.216432C47.8987 -0.297318 46.3462 0.121432 45.4287 1.28268C43.4769 3.61346 41.3313 5.77492 39.015 7.74393C36.0612 10.2439 33.235 12.0252 30.64 13.0327C30.4508 13.1048 30.2879 13.2327 30.1729 13.3995C30.058 13.5662 29.9964 13.7639 29.9963 13.9664V33.3814C29.9966 33.7724 30.1115 34.1547 30.3267 34.481C30.542 34.8074 30.8482 35.0635 31.2075 35.2177C33.625 36.2539 36.2375 37.9464 38.9575 40.2527C41.2913 42.2395 43.4523 44.4207 45.4175 46.7727C45.7323 47.1677 46.1342 47.4845 46.5917 47.6985C47.0492 47.9126 47.55 48.0179 48.055 48.0064C48.4989 48.0045 48.9395 47.931 49.36 47.7889C50.9638 47.2564 52 45.8877 52 44.3064V29.1977C52.0001 29.0797 52.0419 28.9655 52.1181 28.8754C52.1943 28.7852 52.2999 28.725 52.4162 28.7052L52.5225 28.6877C53.725 28.3614 56 26.9652 56 24.0064C56 21.0477 53.725 19.6514 52.5225 19.3252ZM26 36.0064V15.0064C26 14.7412 25.8946 14.4869 25.7071 14.2993C25.5196 14.1118 25.2652 14.0064 25 14.0064H13C12.7348 14.0064 12.4804 14.1118 12.2929 14.2993C12.1054 14.4869 12 14.7412 12 15.0064V53.0064C12 53.8021 12.3161 54.5651 12.8787 55.1278C13.4413 55.6904 14.2044 56.0064 15 56.0064H21.5562C22.1795 56.0116 22.7956 55.8741 23.3574 55.6044C23.9193 55.3346 24.4119 54.9398 24.7975 54.4502C25.1929 53.9434 25.4588 53.3478 25.5723 52.7151C25.6858 52.0824 25.6434 51.4316 25.4487 50.8189C25.2462 50.1714 24.995 49.4439 24.7275 48.6702C23.7388 45.8077 22.435 44.0364 22.0875 40.0052C23.1329 39.9823 24.1278 39.551 24.8591 38.8036C25.5904 38.0562 25.9999 37.0521 26 36.0064Z" fill="white"/>
</svg>
