<svg width="64" height="64" viewBox="0 0 64 64" fill="none" xmlns="http://www.w3.org/2000/svg">
<path d="M54.8571 0H9.14286C6.71883 0.00308809 4.39485 1.12789 2.6808 3.12761C0.966759 5.12732 0.00264694 7.83864 0 10.6667V53.3333C0.00264694 56.1614 0.966759 58.8727 2.6808 60.8724C4.39485 62.8721 6.71883 63.9969 9.14286 64H54.8571C57.2812 63.9969 59.6052 62.8721 61.3192 60.8724C63.0332 58.8727 63.9974 56.1614 64 53.3333V10.6667C63.9974 7.83864 63.0332 5.12732 61.3192 3.12761C59.6052 1.12789 57.2812 0.00308809 54.8571 0ZM43.4286 10.6667C44.7848 10.6667 46.1105 11.1359 47.2382 12.0149C48.3658 12.894 49.2447 14.1434 49.7637 15.6052C50.2827 17.067 50.4185 18.6755 50.154 20.2274C49.8894 21.7792 49.2363 23.2047 48.2773 24.3235C47.3183 25.4423 46.0965 26.2043 44.7663 26.513C43.4362 26.8216 42.0574 26.6632 40.8045 26.0577C39.5515 25.4522 38.4805 24.4268 37.7271 23.1112C36.9736 21.7956 36.5714 20.2489 36.5714 18.6667C36.5733 16.5456 37.2964 14.5121 38.5819 13.0122C39.8675 11.5124 41.6105 10.6689 43.4286 10.6667ZM9.14286 58.6667C7.93044 58.6667 6.76768 58.1048 5.91037 57.1046C5.05306 56.1044 4.57143 54.7478 4.57143 53.3333V42.0617L18.12 28.0117C19.4272 26.6591 21.1272 25.9389 22.8738 25.9977C24.6203 26.0565 26.2819 26.89 27.52 28.3283L36.7986 39.13L20.0529 58.6667H9.14286ZM59.4286 53.3333C59.4286 54.7478 58.9469 56.1044 58.0896 57.1046C57.2323 58.1048 56.0696 58.6667 54.8571 58.6667H26.5186L43.8643 38.43C45.0924 37.2116 46.6508 36.5403 48.263 36.5354C49.8751 36.5305 51.4365 37.1923 52.67 38.4033L59.4286 44.9733V53.3333Z" fill="white"/>
</svg>
